<svg xmlns="http://www.w3.org/2000/svg" width="512" height="512" viewBox="0 0 512 512" xml:space="preserve"><circle cx="256" cy="256" r="256" fill="#a3afe4"></circle><path fill="#8897dc" d="M512 256c0 141.382-114.618 256-256 256-30.596 0-59.936-5.367-87.133-15.216 17.245 3.822 35.181 5.841 53.58 5.841 136.211 0 246.636-110.415 246.636-246.625S358.658 9.375 222.447 9.375c-18.399 0-36.334 2.019-53.58 5.841C196.064 5.367 225.404 0 256 0c141.382 0 256 114.618 256 256"></path><path fill="#cbe5e7" d="M111.431 22.337a7.72 7.72 0 0 1-6.698-3.865 7.725 7.725 0 0 1 2.828-10.554l7.814-4.512a7.725 7.725 0 0 1 10.554 2.828 7.725 7.725 0 0 1-2.828 10.554l-7.814 4.512a7.7 7.7 0 0 1-3.856 1.037M392.77 509.63a7.726 7.726 0 0 1-3.87-14.419l7.814-4.512a7.726 7.726 0 0 1 7.726 13.382l-7.814 4.512a7.7 7.7 0 0 1-3.856 1.037M10.091 126.966a7.7 7.7 0 0 1-3.856-1.037 7.725 7.725 0 0 1-2.828-10.554l4.512-7.814a7.725 7.725 0 0 1 10.554-2.828 7.725 7.725 0 0 1 2.828 10.554l-4.512 7.814a7.73 7.73 0 0 1-6.698 3.865m487.292 281.338a7.727 7.727 0 0 1-6.684-11.592l4.512-7.814a7.727 7.727 0 0 1 13.382 7.728l-4.512 7.814a7.72 7.72 0 0 1-6.698 3.864"></path><path fill="#8897dc" d="M53.873 67.98a7.725 7.725 0 0 1-5.463-13.19l6.38-6.38a7.727 7.727 0 0 1 10.927 10.927l-6.38 6.38a7.7 7.7 0 0 1-5.464 2.263m397.873 397.873a7.727 7.727 0 0 1-5.464-13.19l6.38-6.38a7.727 7.727 0 0 1 10.928 10.927l-6.38 6.38a7.7 7.7 0 0 1-5.464 2.263"></path><path fill="#cbe5e7" d="M501.909 126.966a7.72 7.72 0 0 1-6.698-3.864l-4.512-7.814a7.727 7.727 0 0 1 13.382-7.728l4.512 7.814a7.727 7.727 0 0 1-6.684 11.592M14.616 408.304a7.72 7.72 0 0 1-6.698-3.865l-4.512-7.814a7.725 7.725 0 0 1 2.828-10.554 7.725 7.725 0 0 1 10.554 2.828l4.512 7.814a7.725 7.725 0 0 1-2.828 10.554 7.7 7.7 0 0 1-3.856 1.037M400.569 22.337a7.7 7.7 0 0 1-3.856-1.037l-7.814-4.512a7.726 7.726 0 0 1-2.828-10.554 7.724 7.724 0 0 1 10.554-2.828l7.814 4.512a7.726 7.726 0 0 1-3.87 14.419M119.231 509.63a7.7 7.7 0 0 1-3.856-1.037l-7.814-4.512a7.725 7.725 0 0 1-2.828-10.554 7.724 7.724 0 0 1 10.554-2.828l7.814 4.512a7.725 7.725 0 0 1 2.828 10.554 7.72 7.72 0 0 1-6.698 3.865"></path><path fill="#8897dc" d="M458.127 67.98a7.7 7.7 0 0 1-5.464-2.263l-6.38-6.38a7.727 7.727 0 0 1 10.928-10.927l6.38 6.38a7.727 7.727 0 0 1-5.464 13.19M60.254 465.853a7.7 7.7 0 0 1-5.463-2.263l-6.38-6.38a7.727 7.727 0 0 1 10.927-10.927l6.38 6.38a7.725 7.725 0 0 1-5.464 13.19"></path><circle cx="256" cy="256" r="226.521" fill="#3351c5"></circle><path fill="#2944ae" d="M482.516 256c0 125.105-101.411 226.516-226.516 226.516-6.119 0-12.177-.247-18.172-.721C354.434 472.544 446.182 374.986 446.182 256S354.434 39.456 237.828 30.205A231 231 0 0 1 256 29.484c125.105 0 226.516 101.411 226.516 226.516"></path><path fill="#2944ae" d="m455.276 242.895-9.747-5.331-5.332-9.748c-2.62-4.791-7.64-7.768-13.102-7.768s-10.482 2.977-13.102 7.768l-2.555 4.67-15.863-9.544a14.928 14.928 0 0 0-.073-26.16l-9.748-5.331-5.331-9.748a14.93 14.93 0 0 0-13.101-7.768h-.001a14.93 14.93 0 0 0-13.103 7.768l-5.331 9.748-9.747 5.331c-4.792 2.62-7.769 7.641-7.769 13.102s2.977 10.481 7.768 13.102l.228.125-119.527 75.67-2.465-4.508c-2.621-4.791-7.641-7.767-13.102-7.767s-10.481 2.976-13.102 7.768l-1.347 2.463-17.317-18.136 2.899-1.586a14.93 14.93 0 0 0 7.768-13.102 14.93 14.93 0 0 0-7.768-13.102l-9.748-5.331-5.331-9.747c-2.62-4.791-7.641-7.768-13.102-7.768s-10.481 2.976-13.102 7.768l-5.331 9.748-9.748 5.33a14.93 14.93 0 0 0-7.768 13.102 14.93 14.93 0 0 0 7.768 13.103l.482.264-19.133 12.646-2.387-4.364c-2.621-4.791-7.641-7.767-13.102-7.767s-10.481 2.976-13.102 7.768l-5.331 9.748-9.747 5.331a14.93 14.93 0 0 0-7.768 13.102 14.93 14.93 0 0 0 7.768 13.103l9.748 5.331 5.331 9.747a14.93 14.93 0 0 0 13.102 7.768h.001a14.93 14.93 0 0 0 13.102-7.768l5.331-9.747 9.748-5.331c4.791-2.621 7.768-7.641 7.768-13.102s-2.976-10.481-7.768-13.102l-.482-.264 19.133-12.646 2.386 4.364a14.93 14.93 0 0 0 13.102 7.768h.001c5.46 0 10.481-2.976 13.102-7.768l1.347-2.463 17.317 18.136-2.899 1.586c-4.791 2.62-7.768 7.64-7.768 13.101s2.976 10.482 7.768 13.103l9.748 5.332 5.331 9.747a14.93 14.93 0 0 0 13.102 7.768h.001a14.93 14.93 0 0 0 13.102-7.768l5.331-9.748 9.749-5.331c4.791-2.621 7.768-7.641 7.768-13.102s-2.976-10.481-7.768-13.102l-.228-.125 119.527-75.67 2.465 4.507a14.93 14.93 0 0 0 13.101 7.768h.001a14.93 14.93 0 0 0 13.103-7.768l2.554-4.67 15.863 9.544a14.928 14.928 0 0 0 .074 26.16l9.747 5.331 5.331 9.749c2.622 4.791 7.642 7.767 13.103 7.767s10.481-2.976 13.102-7.767l5.332-9.749 9.747-5.331A14.93 14.93 0 0 0 463.048 256a14.94 14.94 0 0 0-7.772-13.105"></path><path d="M97.653 280.665a7.726 7.726 0 0 1-4.267-14.173l36.839-24.348a7.726 7.726 0 0 1 10.706 2.186 7.726 7.726 0 0 1-2.186 10.706l-36.839 24.348a7.7 7.7 0 0 1-4.253 1.281m93.881 8.712a7.7 7.7 0 0 1-5.589-2.391l-31.567-33.061a7.726 7.726 0 0 1 .253-10.924 7.725 7.725 0 0 1 10.924.253l31.567 33.061a7.726 7.726 0 0 1-.253 10.924 7.7 7.7 0 0 1-5.335 2.138m25.488.001a7.726 7.726 0 0 1-4.141-14.256l137.566-87.09a7.727 7.727 0 0 1 8.266 13.056l-137.566 87.09a7.7 7.7 0 0 1-4.125 1.2m197.325-66.456a7.7 7.7 0 0 1-3.976-1.107l-34.293-20.633a7.727 7.727 0 0 1 7.966-13.241l34.293 20.633a7.727 7.727 0 0 1-3.99 14.348" fill="#fff1e2"></path><path fill="#fcc16d" d="m97.646 272.938 11.733 6.417c4.998 2.734 4.998 9.913 0 12.646l-11.733 6.417-6.417 11.733c-2.734 4.998-9.913 4.998-12.646 0l-6.417-11.733-11.733-6.417c-4.998-2.734-4.998-9.913 0-12.646l11.733-6.417 6.417-11.733c2.734-4.998 9.913-4.998 12.646 0z"></path><path fill="#fca62f" d="m109.376 291.998-11.73 6.422-6.412 11.73c-2.74 5.004-9.913 5.004-12.653 0l-2.283-4.176c5.832-4.843 9.542-12.13 9.542-20.293s-3.71-15.46-9.542-20.293l2.283-4.186c2.74-4.995 9.913-4.995 12.653 0l6.412 11.74 11.73 6.412c5.004 2.731 5.004 9.914 0 12.644"></path><path fill="#fcc16d" d="m159.966 223.109 11.733 6.417c4.998 2.734 4.998 9.913 0 12.646l-11.733 6.417-6.417 11.733c-2.734 4.998-9.913 4.998-12.646 0l-6.417-11.733-11.733-6.417c-4.998-2.734-4.998-9.913 0-12.646l11.733-6.417 6.417-11.733c2.734-4.998 9.913-4.998 12.646 0z"></path><path fill="#fca62f" d="m171.696 242.17-11.73 6.422-6.412 11.73c-2.74 5.004-9.913 5.004-12.653 0l-2.283-4.176c5.832-4.843 9.542-12.13 9.542-20.293s-3.71-15.46-9.542-20.293l2.283-4.186c2.74-4.995 9.913-4.995 12.653 0l6.412 11.74 11.73 6.412c5.004 2.73 5.004 9.913 0 12.644"></path><path fill="#fcc16d" d="m217.014 281.651 11.733 6.417c4.998 2.734 4.998 9.913 0 12.646l-11.733 6.417-6.417 11.733c-2.734 4.998-9.913 4.998-12.646 0l-6.417-11.733-11.733-6.417c-4.998-2.734-4.998-9.913 0-12.646l11.733-6.417 6.417-11.733c2.734-4.998 9.913-4.998 12.646 0z"></path><path fill="#fca62f" d="m228.744 300.711-11.73 6.422-6.412 11.73c-2.74 5.004-9.913 5.004-12.653 0l-2.283-4.176c5.832-4.843 9.542-12.13 9.542-20.293s-3.71-15.46-9.542-20.293l2.283-4.186c2.74-4.995 9.913-4.995 12.653 0l6.412 11.74 11.73 6.412c5.004 2.731 5.004 9.914 0 12.644"></path><path fill="#fcc16d" d="m380.061 169.081 11.733 6.417c4.998 2.734 4.998 9.913 0 12.646l-11.733 6.417-6.417 11.733c-2.734 4.998-9.913 4.998-12.646 0l-6.417-11.733-11.733-6.417c-4.998-2.734-4.998-9.913 0-12.646l11.733-6.417 6.417-11.733c2.734-4.998 9.913-4.998 12.646 0z"></path><path fill="#fca62f" d="m391.791 188.141-11.73 6.422-6.412 11.73c-2.74 5.004-9.913 5.004-12.653 0l-2.283-4.176c5.832-4.843 9.542-12.13 9.542-20.293s-3.71-15.46-9.542-20.293l2.283-4.186c2.74-4.995 9.913-4.995 12.653 0l6.412 11.74 11.73 6.412c5.004 2.73 5.004 9.913 0 12.644"></path><path fill="#fcc16d" d="m439.835 215.194 11.733 6.417c4.998 2.734 4.998 9.913 0 12.646l-11.733 6.417-6.417 11.733c-2.734 4.998-9.913 4.998-12.646 0l-6.417-11.733-11.733-6.417c-4.998-2.734-4.998-9.913 0-12.646l11.733-6.417 6.417-11.733c2.734-4.998 9.913-4.998 12.646 0z"></path><path fill="#fca62f" d="m451.565 234.255-11.73 6.422-6.412 11.73c-2.74 5.004-9.913 5.004-12.653 0l-2.283-4.176c5.832-4.843 9.542-12.13 9.542-20.293s-3.71-15.46-9.542-20.293l2.283-4.186c2.74-4.995 9.913-4.995 12.653 0l6.412 11.74 11.73 6.412c5.004 2.73 5.004 9.913 0 12.644"></path><path d="M301.782 139.392a7.725 7.725 0 0 1-7.713-7.396l-.013-.306a7.726 7.726 0 0 1 7.389-8.049c4.259-.203 7.867 3.126 8.049 7.389l.013.306a7.726 7.726 0 0 1-7.725 8.056m-.087 33.001a7.725 7.725 0 0 1-7.713-7.396l-.013-.306a7.726 7.726 0 0 1 7.389-8.049c4.25-.193 7.867 3.126 8.049 7.389l.013.306a7.726 7.726 0 0 1-7.725 8.056m15.691-16.601a7.727 7.727 0 0 1-.361-15.445l.286-.014c4.257-.184 7.882 3.089 8.085 7.351s-3.089 7.882-7.35 8.085l-.286.014a8 8 0 0 1-.374.009m-31.595-.091a7.725 7.725 0 0 1-7.711-7.361 7.726 7.726 0 0 1 7.352-8.083l.287-.014c4.268-.176 7.882 3.091 8.082 7.352a7.726 7.726 0 0 1-7.352 8.083l-.287.014a7 7 0 0 1-.371.009m-125.6 216.134a7.726 7.726 0 0 1-7.713-7.384l-.014-.306a7.726 7.726 0 0 1 7.376-8.061c4.247-.179 7.872 3.113 8.061 7.376l.014.306a7.726 7.726 0 0 1-7.724 8.069m-.086 33.002a7.727 7.727 0 0 1-7.714-7.396l-.013-.306a7.726 7.726 0 0 1 7.389-8.049 7.72 7.72 0 0 1 8.049 7.389l.013.306a7.726 7.726 0 0 1-7.724 8.056m15.69-16.602a7.726 7.726 0 0 1-7.71-7.347 7.726 7.726 0 0 1 7.337-8.097l.286-.014a7.726 7.726 0 1 1 .76 15.434l-.286.014q-.195.01-.387.01m-31.595-.09a7.727 7.727 0 0 1-.372-15.444l.287-.014a7.72 7.72 0 0 1 8.096 7.338 7.727 7.727 0 0 1-7.338 8.097l-.287.014q-.195.009-.386.009m141.928-74.15a7.726 7.726 0 0 1-7.712-7.371l-.014-.306a7.73 7.73 0 0 1 7.363-8.074 7.73 7.73 0 0 1 8.073 7.363l.014.306a7.73 7.73 0 0 1-7.724 8.082m-.087 33.001a7.726 7.726 0 0 1-7.712-7.371l-.014-.306a7.73 7.73 0 0 1 7.363-8.074c4.254-.191 7.877 3.101 8.073 7.363l.014.306a7.73 7.73 0 0 1-7.724 8.082m15.69-16.601a7.725 7.725 0 0 1-7.711-7.361 7.726 7.726 0 0 1 7.352-8.083l.287-.014a7.726 7.726 0 0 1 .73 15.435l-.287.014a8 8 0 0 1-.371.009m-31.594-.091a7.725 7.725 0 0 1-7.711-7.361 7.726 7.726 0 0 1 7.352-8.083l.287-.014a7.726 7.726 0 0 1 .73 15.435l-.287.014a8 8 0 0 1-.371.009" fill="#cbe5e7"></path><circle cx="252.588" cy="134.655" r="17.304" fill="#2944ae"></circle><circle cx="252.588" cy="113.609" r="17.304" fill="#a3afe4"></circle><path fill="#8897dc" d="M269.891 113.608c0 9.552-7.746 17.31-17.298 17.31a17.1 17.1 0 0 1-9.62-2.925c6.391-1.66 11.111-7.475 11.111-14.385s-4.708-12.725-11.099-14.385a17.2 17.2 0 0 1 9.609-2.913c9.551 0 17.297 7.746 17.297 17.298"></path><circle cx="229.268" cy="391.858" r="17.304" fill="#2944ae"></circle><circle cx="229.268" cy="370.812" r="17.304" fill="#a3afe4"></circle><path fill="#8897dc" d="M246.571 370.811c0 9.552-7.746 17.31-17.298 17.31a17.1 17.1 0 0 1-9.62-2.925c6.391-1.66 11.111-7.475 11.111-14.385s-4.708-12.725-11.099-14.385a17.2 17.2 0 0 1 9.609-2.913c9.551 0 17.297 7.746 17.297 17.298"></path><circle cx="224.013" cy="210.236" r="23.653" fill="#2944ae"></circle><circle cx="224.013" cy="189.189" r="23.653" fill="#23f1a8"></circle><path fill="#26d192" d="M247.665 189.189c0 13.057-10.588 23.66-23.645 23.66-4.877 0-9.399-1.466-13.15-3.998 8.736-2.269 15.187-10.217 15.187-19.663s-6.436-17.394-15.172-19.663a23.5 23.5 0 0 1 13.134-3.982c13.059.001 23.646 10.588 23.646 23.646"></path><circle cx="360.616" cy="352.116" r="23.653" fill="#2944ae"></circle><circle cx="360.616" cy="331.069" r="23.653" fill="#fc5a95"></circle><path fill="#fb3a82" d="M384.268 331.068c0 13.057-10.588 23.66-23.645 23.66-4.877 0-9.399-1.466-13.15-3.998 8.736-2.269 15.187-10.217 15.187-19.663s-6.436-17.394-15.172-19.663a23.5 23.5 0 0 1 13.134-3.982c13.058.001 23.646 10.589 23.646 23.646"></path></svg>