<svg xmlns="http://www.w3.org/2000/svg" width="512" height="512" viewBox="0 0 50 50" xml:space="preserve"><path fill="#a1a1f8" d="M48.98 25.089c0 4.16-2.93 7.62-6.84 8.44-.58.13-1.17.19-1.79.19H9.65c-.39 0-.77-.03-1.14-.08a1 1 0 0 1-.16-.02q-.24-.03-.48-.09c-.87-.18-1.69-.49-2.43-.91a8.62 8.62 0 0 1-4.42-7.53c0-2.42.99-4.59 2.58-6.16a8.63 8.63 0 0 1 4.85-2.39v-.14c0-3.69 2.96-6.69 6.63-6.74h.1c.74 0 1.45.12 2.12.34 1.73-4.15 5.83-7.07 10.61-7.07 2.99 0 5.71 1.14 7.75 3.01 2.3 2.1 3.74 5.12 3.74 8.48 0 .72-.06 1.43-.19 2.11.38-.05.76-.07 1.14-.07.84 0 1.65.12 2.42.35a8.615 8.615 0 0 1 6.21 8.28"></path><path fill="#fff" d="M18.891 11.37a.65.65 0 0 1-.35-.85 10.1 10.1 0 0 1 2.137-3.22.65.65 0 1 1 .926.911 8.8 8.8 0 0 0-1.863 2.809.65.65 0 0 1-.85.35m-8.488 4.938a.65.65 0 0 1-.542-.743 5.37 5.37 0 0 1 5.233-4.554l.082 1.3c-2.02.026-3.725 1.512-4.03 3.456a.65.65 0 0 1-.743.541m23.462-8.414a8.8 8.8 0 0 0-5.96-2.314.65.65 0 1 1 0-1.3c2.542 0 4.97.944 6.839 2.656a.65.65 0 1 1-.88.958z" opacity=".6"></path><path fill="#7979f6" d="M48.91 25.025c0 4.77-3.86 8.63-8.63 8.63H9.58c-.39 0-.77-.03-1.14-.08a8.4 8.4 0 0 1-3.07-1.02 8.54 8.54 0 0 1-3.09-2.94c.3.23.61.43.93.61.88.49 1.86.84 2.9.99l.17.03c.37.05.75.08 1.13.08h30.7c4.77 0 8.64-3.87 8.64-8.64 0-1.68-.48-3.25-1.32-4.57a8.57 8.57 0 0 1 3.48 6.91"></path><path fill="#7979f6" d="M39.21 28.409v5.31H9.89v-5.31c0-.7.27-1.35.75-1.83l7.08-7.08c.49-.49 1.14-.76 1.82-.76h10.02c.68 0 1.35.29 1.82.77l6.9 6.89.18.18c.49.5.75 1.15.75 1.83"></path><path fill="#fb6559" d="M38.21 28.405V38.42c0 .41-.169.811-.458 1.11l-7.086 7.076c-.289.298-.69.466-1.11.466H19.544c-.42 0-.82-.168-1.119-.466l-7.076-7.077a1.57 1.57 0 0 1-.457-1.11V28.406c0-.42.158-.82.457-1.119l7.076-7.076c.299-.299.7-.466 1.12-.466h10.013c.42 0 .82.167 1.11.466l7.085 7.076c.29.299.457.7.457 1.12z"></path><path fill="#ef5543" d="M38.21 28.405V38.42c0 .41-.169.811-.458 1.11l-7.086 7.076c-.289.298-.69.466-1.11.466H19.544c-.42 0-.82-.168-1.119-.466l-7.076-7.077a1.5 1.5 0 0 1-.448-1.025l6.9 6.9a1.58 1.58 0 0 0 1.119.465h10.013c.42 0 .82-.167 1.11-.466l7.086-7.076c.289-.299.456-.7.456-1.11V27.202c0-.027 0-.065-.009-.093l.177.177c.29.299.457.7.457 1.12z"></path><path fill="#f6f263" d="M19.737 43.962 14 38.224a1.06 1.06 0 0 1-.311-.751v-8.131c0-.282.112-.552.311-.752l5.738-5.738c.2-.2.47-.311.752-.311h8.114c.281 0 .552.112.751.31l5.746 5.74c.2.199.312.47.312.751v8.13c0 .283-.112.554-.312.753l-5.747 5.738c-.2.199-.47.31-.751.31H20.49c-.282 0-.552-.111-.752-.31z"></path><path fill="#ecd218" d="m35.365 29.049-5.034-5.035a1.1 1.1 0 0 0-.756-.308h-8.111c-.28 0-.55.112-.755.308l-5.734 5.743a1.06 1.06 0 0 0-.308.746v8.14c0 .102.019.214.056.307l-.727-.727a1.06 1.06 0 0 1-.308-.746v-8.14c0-.28.112-.55.308-.745l5.743-5.744a1.06 1.06 0 0 1 .746-.307h8.12c.28 0 .55.112.747.307l5.752 5.744c.13.121.215.28.261.457"></path><g fill="#2d2c2c"><path d="M23.524 39.941a1.12 1.12 0 0 1-.34-.825q0-.467.34-.807c.34-.34.495-.34.807-.34q.485 0 .825.34c.34.34.34.495.34.807q0 .484-.34.825a1.12 1.12 0 0 1-.825.34q-.467.001-.807-.34m.34-3.644a.58.58 0 0 1-.194-.407l-.35-6.413v-1.924q0-.427.291-.718c.291-.291.435-.291.72-.291q.426 0 .709.29a1 1 0 0 1 .281.72v1.923l-.35 6.413a.6.6 0 0 1-.184.407q-.165.157-.456.157c-.291 0-.35-.052-.467-.157"></path><path d="M24.33 40.432a1.25 1.25 0 0 1-.912-.386 1.27 1.27 0 0 1-.384-.93c0-.35.13-.658.384-.913.255-.254.562-.384.913-.384.363 0 .677.13.931.384q.384.385.385.913c0 .362-.13.676-.385.931a1.27 1.27 0 0 1-.931.385zm0-2.312c-.272 0-.5.096-.7.296s-.295.427-.295.7c0 .285.096.52.296.719.198.2.427.296.7.296a.97.97 0 0 0 .719-.295c.2-.2.296-.436.296-.72a.95.95 0 0 0-.296-.7.97.97 0 0 0-.72-.296m0-1.516q-.35 0-.567-.195a.73.73 0 0 1-.243-.507l-.35-6.417v-1.932q.001-.489.335-.825.335-.334.826-.335c.325 0 .6.113.816.337q.323.337.324.823v1.924l-.35 6.421a.75.75 0 0 1-.232.509c-.137.13-.326.197-.558.197zm0-9.91a.82.82 0 0 0-.613.247.82.82 0 0 0-.247.612v1.924l.349 6.405q.015.187.145.303v.001q.131.118.367.117.232.001.352-.115a.45.45 0 0 0 .139-.31l.35-6.409-.001-1.916a.84.84 0 0 0-.24-.614.8.8 0 0 0-.6-.245z"></path></g></svg>