<?xml version="1.0" encoding="UTF-8" standalone="no"?><svg version="1.1" viewBox="0 0 1024 1024" xml:space="preserve" xmlns:xlink="http://www.w3.org/1999/xlink" xmlns="http://www.w3.org/2000/svg" xmlns:svg="http://www.w3.org/2000/svg"><defs><linearGradient id="a"><stop offset="0" stop-color="#000" stop-opacity=".23999999"/><stop offset=".23999999" stop-color="#3d3d3d" stop-opacity=".11764706"/><stop offset=".47999999" stop-color="gray" stop-opacity="0"/><stop offset="1" stop-color="#fff" stop-opacity="0"/></linearGradient><linearGradient id="b"><stop offset="0" stop-color="#48a145"/><stop offset=".0625" stop-color="#39a44b"/><stop offset=".125" stop-color="#3cab4f"/><stop offset=".28" stop-color="#40ba55"/><stop offset=".5" stop-color="#47cb5d"/><stop offset=".75" stop-color="#4ad561"/><stop offset="1" stop-color="#4cd964"/></linearGradient><linearGradient id="c"><stop offset="0" stop-color="#bb7309"/><stop offset=".0625" stop-color="#c27100"/><stop offset=".125" stop-color="#c97600"/><stop offset=".28" stop-color="#db7f00"/><stop offset=".5" stop-color="#ee8b00"/><stop offset=".75" stop-color="#fa9200"/><stop offset="1" stop-color="#fe9400"/></linearGradient><linearGradient id="d"><stop offset="0" stop-color="#4597bb"/><stop offset=".0625" stop-color="#4498bd"/><stop offset=".125" stop-color="#479ec5"/><stop offset=".28" stop-color="#4dabd7"/><stop offset=".5" stop-color="#54bbe9"/><stop offset=".75" stop-color="#58c4f5"/><stop offset="1" stop-color="#5ac8fa"/></linearGradient><linearGradient xlink:href="#a" id="i" x1="896" y1="512" x2="1024" y2="512" gradientUnits="userSpaceOnUse"/><radialGradient xlink:href="#b" id="f" gradientUnits="userSpaceOnUse" gradientTransform="matrix(.0000017 .99999975 -4.1902859 3e-7 4446.126 -191.99999)" cx="960" cy="831" fx="960" fy="831" r="64"/><radialGradient xlink:href="#c" id="g" gradientUnits="userSpaceOnUse" gradientTransform="matrix(-.00990772 .99995067 -3.4953382 -.03463724 3878.1374 -419.16908)" cx="960.00592" cy="831.1712" fx="960.00592" fy="831.1712" r="64"/><radialGradient xlink:href="#d" id="h" gradientUnits="userSpaceOnUse" gradientTransform="matrix(.00000133 .99999975 -3.4467577 0 3828.3466 -703.99975)" cx="960" cy="831.19489" fx="960" fy="831.19489" r="64"/><clipPath clipPathUnits="userSpaceOnUse" id="e"><path d="M1023.9999 703.6703c0 12.24394 0 24.46578-.0923 36.68749-.0607 10.3073-.1779 20.61447-.4453 30.89954-.2837 22.5344-2.2629 45.01565-5.9213 67.25295-3.8067 22.26183-10.9078 43.8113-21.08088 63.9583-20.61945 40.48081-53.52839 73.39129-94.0071 94.01169-20.13757 10.15963-41.67821 17.25773-63.91054 21.05973-22.26075 3.6732-44.74408 5.6545-67.27194 5.9217-10.29726.2661-20.59722.4218-30.89785.4669-12.2434.0714-24.46445.0714-36.68562.0714H320.3129c-12.22115 0-24.44231 0-36.68569-.0606-10.30054-.0405-20.60048-.1866-30.89786-.4453-22.54148-.2877-45.0292-2.2745-67.27197-5.944-22.23846-3.7846-43.78676-10.9085-63.91051-21.05986-40.474453-20.61649-73.382628-53.51855-94.007081-93.99013-10.169994-20.15946-17.275178-41.72376-21.0808488-63.98053C2.8006217 816.28975.82124261 793.81592.53759651 771.28886c-.26726224-10.3073-.40038136-20.61447-.44543709-30.9217C0 728.12315 0 715.9236 0 703.67966V320.33072c0-12.24407 0-24.48805.09215942-36.73201.04096-10.28505.17817485-20.59224.44543709-30.87719.2836461-22.52708 2.26333229-45.00092 5.92134369-67.23084 3.8065928-22.26176 10.9077838-43.81123 21.0808488-63.98046 20.619436-40.480777 53.52833-73.391427 94.007081-94.011821 20.13183-10.154396 41.66437-17.252253 63.8883-21.0596905C207.69585 2.7877383 230.17916.80650253 252.70702.51712013 263.01382.24985607 273.32052.11673607 283.60489.07168 295.84836 0 308.09175 0 320.29058 0h383.3742c12.24346 0 24.48687 0 36.70798.07168 10.30056.04096 20.60038.18636807 30.89785.44544013 22.52786.289792 45.01119 2.27061817 67.24964 5.92158837 22.26069 3.8068235 43.78692 10.9083665 63.93283 21.0596905 40.48882 20.614147 73.40659 53.525823 94.02934 94.011821 10.16138 20.15325 17.25908 41.71 21.05858 63.95824 3.6587 22.23729 5.638 44.7185 5.9214 67.25306.2674 10.30717.4002 20.61446.4453 30.89941.0923 12.24398.0923 24.46572.0923 36.68746Z"/></clipPath></defs><g clip-path="url(#e)"><path d="M0 0h1024v1024H0Z" fill="#d8d6cc"/><path fill="#c4c2ba" d="M896 0h128v256H896z"/><path d="M896 768h128v256H896Z" fill="url(#f)"/><path d="M896 512h128v256H896Z" fill="url(#g)"/><path d="M896 256h128v256H896Z" fill="url(#h)"/><path fill="url(#i)" d="M896 0h128v1024H896z"/><path d="M0 0h898.75v1024H0Z" fill="#d8d6cc"/><path d="M453.28711 188.70898c-14.91416-.25355-28.17507.54226-39.41211 1.6836-16.37956 1.66365-32.11607 4.56698-47.70117 8.73437-21.66715 5.79372-50.33509 16.16102-81.06055 34.27539-38.04995 22.43256-69.19941 52.02539-91.07812 80.02149-29.65938 37.95227-44.16503 73.09565-51.49024 94.05273-11.42564 32.68825-17.13672 66.97545-17.13672 103.81836 0 51.56776 12.04152 96.0627 29.125 133.05078 18.94557 41.01974 42.79054 71.49688 65.89649 94.77149 12.06723 11.97979 24.66898 22.89844 38.2207 32.75781 17.02342 12.38516 34.04849 22.42759 50.86719 30.53125 13.8325 6.66483 29.06899 12.56201 40.58008 16.28516 37.29474 12.06263 69.27375 15.1875 97.89453 15.1875 25.5467 0 50.15934-2.83262 73.83984-8.45899 21.67669-5.15027 42.53847-12.72749 61.94336-21.90625 31.80234-15.04291 62.70963-35.4655 91.71094-64.46679 15.79941-15.91473 29.62191-32.67619 41.71679-50.9668 13.84245-20.93334 34.37677-57.55833 45.20704-104.09961 2.72254-11.69968 4.74753-23.52904 6.10742-35.37891 2.43739-21.23902 2.82948-41.40983 1.09375-63.2832-1.11765-14.08442-3.13386-27.90719-5.98828-41.27344-6.94048-32.49979-19.40096-62.13738-31.28321-84.08984-10.59786-19.57955-21.55485-35.1404-30.66406-46.72461-8.07804-10.27286-16.84194-20.08414-26.18945-29.43164-11.61264-11.61264-26.76527-24.99836-45.45313-37.99219-32.07137-22.29951-76.1388-43.71555-127.41211-52.48828-17.85291-3.05459-34.41982-4.35583-49.33398-4.60938zm-.54492 35.25196c39.50364.67152 76.65363 8.64081 113.44531 25.32031 16.77929 7.60688 31.89413 16.32691 44.62695 25.17969 16.55346 11.50917 29.97538 23.36459 40.26172 33.65039 8.2799 8.27945 16.07112 16.96927 23.22656 26.06836 14.95074 19.01195 27.93285 41.03922 37.04688 61.80664 4.82723 10.99943 9.01734 22.45799 12.47461 33.92969 4.0018 13.27853 6.74992 26.40428 8.55078 39.20507 4.70939 33.47509 2.56424 60.80782 2.23438 64.96485-.99555 12.54514-2.8775 25.36975-5.37305 37.26172-6.06792 28.91507-16.96316 55.28334-27.35156 74.81445-9.26546 17.41993-18.90516 31.26576-26.86915 41.57227-4.87414 6.30777-10.12767 12.34627-15.54296 18.26171-4.09117-6.326-9.37717-12.6017-15.85938-18.88476-3.9024-3.78251-8.06482-7.44425-12.43555-10.95899-9.09397-7.31297-22.43423-16.54391-39.83789-25.27734-24.53139-12.31023-50.46688-20.33883-75.70703-25.45703-21.35716-4.3308-44.2693-6.32813-67.77148-6.32813-26.0231 0-49.02921 2.30656-71.71485 7.13086-17.75626 3.77602-40.34801 10.41509-60.36914 19.25586-13.50211 5.96215-29.08334 14.11471-43.95312 24.78906-8.70141 6.24636-17.22075 13.3541-24.32031 21.10352-4.32463 4.72049-8.19096 9.44162-11.43555 14.16211-5.28042-5.73736-10.20356-11.49339-14.64453-17.17578-12.98746-16.61795-23.37282-33.8072-31.54492-50.45313-11.81747-24.07127-21.15037-51.35705-25.83985-82.09961-1.57341-10.31469-2.56188-21.95711-2.90429-28.48828-.34241-6.53117-.35841-15.91029-.34961-17.60156h.02148c.02393-4.79441.06109-10.01201.37891-15.60547.47386-8.3395 1.35003-17.5148 2.85351-27.37109 4.68947-30.74256 14.02238-58.02834 25.83985-82.09961 8.1721-16.64593 18.55746-33.83322 31.54492-50.45117 19.3238-24.72554 46.83478-50.86189 80.4414-70.67383 32.55156-19.18996 63.31742-28.74047 86.29688-33.52734 11.81269-2.46072 21.84296-3.74855 29.47266-4.52344 10.00947-1.01659 21.82254-1.72583 35.10742-1.5zm-4.9043 98.01562c-20.67727 0-39.41652 5.50436-56.2168 16.51563-16.5849 10.79535-29.73081 25.26222-39.63867 43.39843-9.69246 18.13622-14.53177 37.99912-14.3164 59.58985.21539 23.10207 4.55339 43.01098 14.76171 62.33984 9.69247 18.35211 22.93073 32.56791 39.51563 43.36328 16.58489 10.57945 35.21726 16.06836 55.89453 16.06836 20.67727.2159 39.35651-5.34242 55.94141-15.92187 16.58489-10.79535 29.67471-24.9428 39.36718-43.29492 9.67142-18.1249 14.86133-39.45262 14.86133-62.55469 0-21.59073-4.85387-41.6548-14.76172-59.79102-7.33184-13.42086-19.59325-30.50821-40.35937-43.80468-17.92678-11.47846-36.73198-15.90821-55.04883-15.90821z" fill="#a9a29a"/></g></svg>